<svg width="1920" height="1080" viewBox="0 0 1920 1080" xmlns="http://www.w3.org/2000/svg"><rect width="1920" height="1080" fill="#a8c6db"/><path d="M 0,1080 C 0,1080 0,360 0,360 C 97.6820512820513,311.16410256410256 195.3641025641026,262.3282051282052 312,282 C 428.6358974358974,301.6717948717948 564.2256410256409,389.85128205128206 660,396 C 755.7743589743591,402.14871794871794 811.7333333333333,326.2666666666667 907,353 C 1002.2666666666667,379.7333333333333 1136.8410256410257,509.0820512820513 1269,487 C 1401.1589743589743,464.9179487179487 1530.9025641025642,291.4051282051282 1639,245 C 1747.0974358974358,198.5948717948718 1833.548717948718,279.2974358974359 1920,360 C 1920,360 1920,1080 1920,1080 Z" fill="#21b0e7" opacity="0.19999999999999998"/><path d="M 0,1080 C 0,1080 0,720 0,720 C 80.55897435897438,715.1025641025641 161.11794871794876,710.2051282051282 274,713 C 386.88205128205124,715.7948717948718 532.0871794871794,726.2820512820514 669,734 C 805.9128205128206,741.7179487179486 934.5333333333335,746.6666666666666 1018,714 C 1101.4666666666665,681.3333333333334 1139.779487179487,611.0512820512821 1231,610 C 1322.220512820513,608.9487179487179 1466.348717948718,677.1282051282052 1590,707 C 1713.651282051282,736.8717948717948 1816.8256410256408,728.4358974358975 1920,720 C 1920,720 1920,1080 1920,1080 Z" fill="#21b0e7" opacity="0.39999999999999997"/></svg>